<?xml version="1.0" encoding="utf-8" ?>
<svg xmlns="http://www.w3.org/2000/svg" xmlns:xlink="http://www.w3.org/1999/xlink" width="300" height="113">
	<path fill="#7075B7" fill-opacity="0.011764706" d="M42.8361 80.7677L44.2394 80.7454C44.5647 80.8357 44.952 80.8941 45.1786 81.1627C43.774 81.648 41.5872 81.3331 40.1198 81.1269C41.0407 81.0562 41.9288 80.9405 42.8361 80.7677Z"/>
	<path fill="#6472AE" d="M22.206 100.105C22.7615 100.177 23.341 100.182 23.736 100.628C23.5528 101.076 23.4023 101.094 22.9725 101.276C22.3862 101.523 21.797 101.521 21.1708 101.519L22.206 100.105Z"/>
	<path fill="#6472AE" d="M188.887 91.622C190.032 91.7645 190.445 92.5755 191.503 92.8287C192.366 92.6731 192.927 92.1346 193.578 91.5856L193.92 91.649L193.654 92.6242L193.603 93.1179C193.233 93.5244 192.917 93.7941 192.372 93.919C191.512 94.1162 190.443 93.9232 189.705 93.4353C189.003 92.9712 189.029 92.3772 188.887 91.622Z"/>
	<path fill="#6472AE" d="M92.0447 91.103C93.1163 91.106 93.5768 92.3084 94.6269 92.5211C95.3735 92.6724 96.1786 91.6561 96.7583 91.2544L97.0775 91.4301L97.3169 92.4141C96.5733 93.1672 95.777 93.5416 94.7308 93.7131C93.8702 93.8541 93.3309 93.6439 92.6406 93.1461C92.1385 92.496 92.1066 91.899 92.0447 91.103Z"/>
	<path fill="#6472AE" d="M261.531 100.227C263.64 100.021 267.141 99.7089 269.047 100.703C268.623 101.276 267.542 101.41 266.834 101.516C265.049 101.782 263.122 101.371 261.415 101.715C261.666 101.362 261.904 101.025 262.081 100.628L261.531 100.227Z"/>
	<path fill="#6472AE" d="M117.726 101.497C117.286 103.293 118.37 106.448 117.205 107.933C116.663 108.007 116.641 108.011 116.178 107.724C116.006 107.393 115.914 107.052 115.857 106.686C115.548 104.695 115.3 95.9091 116.259 94.6045C116.832 94.3423 116.857 94.2985 117.456 94.468C118.209 95.7852 117.273 98.19 117.644 99.7419C117.729 100.097 117.972 100.148 118.271 100.332L117.684 100.759L117.726 101.497Z"/>
	<path fill="#6472AE" d="M119.156 99.754C120.936 97.647 120.607 95.0549 123.998 94.7811C124.453 94.7444 124.752 94.7795 125.12 95.0567C124.559 96.0153 123.688 96.2601 122.681 96.5453C122.314 97.6664 121.574 99.3616 120.624 100.074C120.599 100.092 120.576 100.112 120.551 100.131C120.51 100.163 120.466 100.193 120.422 100.222C120.391 102.539 125.024 105.975 124.456 107.751C123.924 107.918 123.745 107.951 123.228 107.69C120.841 106.485 120.319 102.301 117.726 101.497L117.684 100.759L118.271 100.332C118.657 100.213 118.869 100.031 119.156 99.754Z"/>
	<path fill="#6472AE" d="M57.1224 94.3527C58.2768 94.2644 59.5345 94.1807 60.6549 94.5309C61.7465 94.872 63.185 95.8705 63.704 96.9099C63.9332 97.3688 63.9622 97.5614 63.8061 98.0456C62.1495 98.4371 60.5314 96.3781 58.9886 95.8231C58.2682 95.5639 57.5276 95.4985 56.825 95.8527C55.9598 96.289 55.2281 97.4932 54.9398 98.3898C54.3747 100.147 54.3793 102.659 55.2467 104.324C55.6747 105.145 56.4841 105.778 57.3699 106.04C58.6524 106.419 59.5508 106.173 60.6931 105.543C61.7952 104.639 62.2723 103.541 63.8088 103.272L64.1876 103.544C64.1981 103.727 64.1851 103.892 64.1226 104.065C63.6818 105.289 62.3664 106.459 61.2271 107.019C59.7021 107.768 57.8882 107.828 56.2925 107.257Q56.0595 107.176 55.836 107.071Q55.6124 106.966 55.4005 106.84Q55.1887 106.713 54.9907 106.566Q54.7927 106.418 54.6106 106.252Q54.4284 106.085 54.2641 105.901Q54.0997 105.717 53.9547 105.517Q53.8098 105.318 53.6857 105.104Q53.5617 104.891 53.4598 104.666C52.5702 102.746 52.5879 100.023 53.3339 98.0577C54.0894 96.0673 55.2603 95.1974 57.1224 94.3527Z"/>
	<path fill="#6472AE" d="M212.851 94.1238C214.583 94.5667 213.328 98.7997 214.188 100.182C214.805 100.216 215.054 100.21 215.532 99.7708C216.393 98.9803 217.418 96.8371 217.468 95.663C218.487 95.2454 219.218 94.5735 220.376 94.4889C220.978 94.6996 221.037 94.7247 221.401 95.2452C221.086 95.9407 219.822 96.1452 219.259 96.664C217.983 97.8388 217.735 99.6088 216.181 100.797C217.393 101.863 219.642 104.167 219.845 105.811C220.422 106.3 220.673 106.469 220.947 107.194L220.695 107.596L220.06 107.724C217.591 107.086 216.683 102.984 214.562 101.394L214.232 101.496C213.817 102.495 213.896 103.707 213.846 104.778C213.799 105.779 213.919 107.462 213.137 108.174L212.585 108.132C212.433 107.825 212.353 107.54 212.308 107.202C212.003 104.897 211.626 95.7426 212.851 94.1238Z"/>
	<path fill="#6472AE" d="M66.9838 93.9054C69.1701 95.4325 67.2209 98.1402 68.2391 100.06L68.9708 100.025C70.4844 99.1364 71.0491 97.0777 71.6915 95.5444C72.1672 95.1686 72.8185 94.7773 73.3913 94.5818C73.9861 94.3788 74.6227 94.4419 75.1801 94.7161L75.2524 95.1869C74.8335 95.957 73.8904 96.2325 73.123 96.5524C72.5703 97.5615 71.2693 99.2912 71.0969 100.345C70.8833 101.649 72.961 103.734 73.7148 104.789C74.2132 105.525 75.0615 106.485 75.0305 107.404L74.744 107.649C72.3542 107.451 69.9892 102.293 68.0638 100.581C68.0149 102.214 68.2122 103.902 68.0459 105.523C67.9637 106.323 67.7299 107.473 67.0767 108C66.857 107.772 66.568 107.52 66.5141 107.197C66.4698 106.931 66.4215 106.665 66.383 106.398C66.0798 104.298 65.9397 95.2938 66.9838 93.9054Z"/>
	<path fill="#6472AE" d="M248.874 94.6242C251.206 94.0564 254.366 94.6512 256.838 94.4979C257.222 95.3142 257.135 106.165 256.907 107.229C256.793 107.761 256.739 107.807 256.292 108.091C254.226 107.001 256.579 98.5945 255.001 96.2739C253.424 96.2739 251.846 96.1818 250.271 96.1117C250.309 96.1791 250.346 96.2467 250.38 96.316C251.198 97.9759 251.109 104.466 250.475 106.231C250.361 106.548 250.023 107.15 249.711 107.298C248.845 107.709 247.978 108.015 247.057 107.686L246.885 107.118C247.316 106.241 248.145 106.406 248.68 105.707C249.321 104.87 249.085 96.0557 248.874 94.6242Z"/>
	<path fill="#6472AE" d="M14.2479 94.4081C16.5517 94.4436 22.5679 93.7523 24.2099 95.2576L24.049 95.5776C21.7933 96.4905 18.3804 96.103 15.9628 96.1013L15.979 100.005C18.0538 100.012 20.1313 100.071 22.206 100.105L21.1708 101.519C19.4379 101.546 17.7191 101.547 15.9878 101.46C16.0447 102.991 15.9652 104.541 15.9333 106.072C18.2461 106.017 22.5724 105.522 24.6006 106.577L24.6985 106.961C23.4211 107.855 16.1662 107.526 14.2101 107.549C14.4991 103.211 14.3319 98.7566 14.2479 94.4081Z"/>
	<path fill="#6472AE" d="M237.009 94.6242C238.474 94.1802 243.188 94.4372 244.853 94.6276C244.869 94.6511 244.886 94.6743 244.901 94.698C245.603 95.7732 245.635 105.225 245.26 106.803C245.103 107.467 244.921 107.846 244.349 108.203C244.26 108.131 244.179 108.059 244.106 107.969C243.064 106.688 243.455 98.6703 243.627 96.7708L243.082 96.2529L238.462 96.1622C238.609 96.41 238.747 96.6739 238.828 96.9517C239.307 98.5731 239.187 105.172 238.413 106.587C238.118 107.126 237.625 107.489 237.036 107.65C236.482 107.802 235.631 107.862 235.126 107.548C234.987 107.461 234.973 107.173 234.938 107.009C235.428 106.372 236.034 106.247 236.763 105.95C237.68 104.765 237.184 96.5556 237.009 94.6242Z"/>
	<path fill="#6472AE" d="M11.0476 94.3989C11.1522 94.3936 11.0996 94.3858 11.2197 94.4408C11.4105 94.5281 11.5459 94.5565 11.6225 94.7655C11.8203 95.3057 11.6841 106.94 11.4225 107.44C11.2341 107.799 11.0216 107.834 10.669 107.96L10.2738 107.69C9.10435 105.109 9.74374 98.9311 9.84158 95.9436C7.55942 96.0794 5.2784 96.0453 2.99368 96.0263C2.94192 98.5482 3.70939 106.289 2.23829 107.926L1.83407 107.764C0.79232 105.71 1.33939 97.3661 1.21777 94.4442Q6.13292 94.4711 11.0476 94.3989Z"/>
	<path fill="#6472AE" d="M148.899 94.6221C150.111 94.3271 157.62 94.7274 158.759 95.1062L158.888 95.6055L158.543 95.9934C156.206 96.6246 152.874 96.1536 150.429 96.0675C150.518 96.2151 150.589 96.362 150.637 96.5285C150.985 97.7159 151.011 99.1854 150.428 100.295C152.034 100.208 153.762 100.016 155.362 100.173C156.269 100.262 157.546 100.427 158.136 101.145C158.114 101.167 158.093 101.189 158.07 101.21C157.029 102.183 152.881 101.796 151.482 101.751C150.685 101.929 150.955 105.201 150.3 106.162C152.302 106.124 157.578 105.54 159.034 106.771L158.994 107.185C157.56 108.139 151.597 107.749 149.539 107.799C148.707 107.024 149.136 96.6862 148.899 94.6221Z"/>
	<path fill="#6472AE" d="M90.2669 94.1194C92.8289 94.7353 90.0611 102.515 91.5332 104.262C93.9003 102.674 96.3095 95.2319 98.9016 94.4174C99.0783 94.3619 99.3027 94.5422 99.4656 94.6298C100.66 96.681 100.149 105.316 99.6959 107.793L98.7905 107.616C97.6409 106.048 98.4249 98.9983 98.5328 96.9445C97.5836 98.4933 92.6311 106.187 91.7776 107.022C91.3547 107.435 91.19 107.501 90.6089 107.49C90.3801 107.307 90.1957 107.104 90.084 106.83C89.4188 105.196 89.5932 95.7862 90.2669 94.1194Z"/>
	<path fill="#6472AE" d="M140.451 94.6205L141.367 94.486C141.596 94.5345 141.794 94.622 141.972 94.7776C142.865 95.5563 147.454 106.442 147.542 107.661C147.236 107.934 147.144 107.967 146.736 108.014C145.239 107.297 145.096 105.091 143.98 104.092C143.513 103.675 142.888 103.864 142.309 103.908L138.543 103.968C138.635 104.534 138.468 105.119 138.287 105.649C137.944 106.647 137.553 107.375 136.582 107.852L136.232 107.663C135.36 104.517 140.367 97.9809 140.451 94.6205ZM140.926 97.1176C141.122 98.4303 140.117 100.75 139.349 101.793Q139.133 102.086 138.883 102.351C139.662 102.358 140.491 102.314 141.259 102.433C142.031 102.461 142.517 102.627 143.152 102.164C143.675 100.465 142.52 98.8286 141.784 97.3579C141.482 97.2111 141.27 97.1159 140.926 97.1176Z"/>
	<path fill="#6472AE" d="M186.567 94.3731C186.976 94.315 187.217 94.3455 187.602 94.4939C187.712 94.6576 187.81 94.8355 187.878 95.0213C188.526 96.7949 188.422 103.488 187.613 105.249C190.668 103.357 192.978 95.2752 196.248 94.5121C196.64 94.9874 196.675 95.2144 196.762 95.8274C197.009 97.564 197.217 105.859 196.653 107.222C196.577 107.407 196.287 107.707 196.16 107.876L195.89 108.17C194.446 107.508 195.816 99.5944 194.561 97.6608C194.459 99.3288 189.938 105.82 188.624 107.127C188.082 107.667 187.674 107.973 186.912 107.97C186.067 106.562 186.412 96.5311 186.567 94.3731Z"/>
	<path fill="#6472AE" d="M78.3868 104.658C79.9728 102.335 83.7959 95.2006 86.1181 94.2172C86.4725 94.0671 86.5565 94.1726 86.895 94.3125C86.9601 94.5837 87.0152 94.8649 87.0417 95.1426C87.2102 96.9087 87.1957 105.279 86.9534 106.791C86.8771 107.268 86.6593 107.646 86.353 108.013L85.6472 107.631C84.6934 105.966 85.2996 99.6612 85.3365 97.3575C83.967 99.0876 79.297 107.247 77.7643 107.556C77.2674 107.303 77.1339 107.15 76.9381 106.614C76.2584 104.755 76.3721 95.8465 77.2297 94.0502C77.5503 94.1371 77.7566 94.2133 77.9885 94.4615C79.201 95.7587 78.4524 102.65 78.3868 104.658Z"/>
	<path fill="#6472AE" d="M26.3652 94.4377C28.9871 94.4402 33.2285 93.8191 35.2917 95.7605C35.9383 96.3689 36.3519 97.1911 36.3646 98.0859C36.378 99.0336 35.966 99.9863 35.3023 100.657C33.7099 102.268 31.8733 102.098 29.7846 102.105L28.0075 102.16C28.0707 103.944 28.4366 106.264 27.3377 107.794C27.2257 107.746 27.1546 107.732 27.0733 107.637C25.7534 106.106 26.2037 96.8276 26.3652 94.4377ZM28.0658 96.061Q27.9932 98.399 28.0115 100.738C29.9141 100.636 32.0473 100.696 33.8666 100.111C34.2756 99.4572 34.6905 98.621 34.5082 97.8231C34.3806 97.2643 34.0959 96.8986 33.6103 96.6028C32.1774 95.7302 29.6828 96.0196 28.0658 96.061Z"/>
	<path fill="#6472AE" d="M126.448 94.8718Q126.672 94.839 126.899 94.8275C129.478 94.7028 133.252 94.3698 135.295 96.2659C135.992 96.9127 136.458 97.7655 136.491 98.727C136.518 99.5229 136.127 100.306 135.584 100.871C134.003 102.514 131.794 102.498 129.687 102.524L128.495 102.554C127.099 104.003 128.484 106.41 127.485 107.986C127.048 108.059 127.012 108.12 126.634 107.856C126.102 105.976 125.785 96.62 126.448 94.8718ZM127.692 96.3708C127.92 97.8911 128.273 99.4715 127.53 100.897C127.517 100.924 127.504 100.951 127.49 100.978C127.482 100.994 127.473 101.01 127.464 101.026C128.719 101.035 132.309 101.35 133.259 100.487C133.304 100.447 133.309 100.439 133.344 100.398C133.891 100.001 134.165 99.8703 134.29 99.1468C134.401 98.4989 134.337 97.9668 134.006 97.3952C132.606 96.0419 130.222 96.2501 128.385 96.2819C128.149 96.286 127.922 96.3205 127.692 96.3708Z"/>
	<path fill="#6472AE" d="M45.964 100.766C46.8344 98.9368 47.256 95.2971 48.9614 94.1017C49.1395 93.9768 49.3988 94.0882 49.6083 94.1269C49.8053 94.3512 49.9893 94.6037 50.1052 94.8808C50.8547 96.6727 50.9391 105.599 50.1932 107.42C50.0437 107.785 49.9995 107.818 49.6371 107.97C49.5041 107.833 49.2551 107.641 49.1641 107.484C48.6974 106.679 48.8615 98.7096 48.7405 96.919L47.6225 99.8288C47.0538 102.023 46.1023 106.064 44.4851 107.639L43.9752 107.818C41.7837 106.386 41.9646 99.4915 39.7845 97.9341C39.5178 100.006 40.4766 106.322 39.3654 107.612L38.9208 107.821C38.4626 107.553 38.3989 107.451 38.266 106.936C37.703 104.754 37.6353 96.413 38.7761 94.5258C38.9186 94.2901 39.0784 94.1318 39.3319 94.0214C39.9465 94.1284 40.1771 94.3609 40.5337 94.8741C41.4432 96.1829 43.9738 104.144 44.4715 106.002C44.9415 104.251 45.3834 102.485 45.964 100.766Z"/>
	<path fill="#6472AE" d="M290.6 94.1242C290.849 94.1293 291.105 94.1923 291.35 94.2345C292.815 95.8347 291.3 98.3546 292.264 100.015C292.315 100.102 292.734 100.171 292.851 100.202C294.524 99.7473 294.954 97.3687 295.822 96.0645C296.372 95.2385 297.136 94.6117 298.121 94.4164C298.764 94.5609 298.876 94.533 299.269 95.0836C298.865 95.9953 297.985 96.0907 297.358 96.8182C296.245 98.1103 296 99.6949 294.587 100.808C296.138 101.984 298.64 105.574 299.17 107.484L298.926 107.804C296.099 107.842 295.27 102.854 291.72 100.822C292.466 102.03 292.154 104.582 292.011 105.979C291.915 106.921 291.825 107.333 291.092 107.926C290.907 108.062 290.821 108.027 290.596 108.024C289.422 105.97 291.039 102.815 289.533 100.665C289.198 101.69 286.828 104.765 286.037 105.924C285.486 106.732 284.872 107.664 283.844 107.858C283.368 107.718 283.282 107.715 282.994 107.309C283.864 104.917 286.275 103.224 287.321 101.037C287.336 101.007 287.35 100.976 287.364 100.945C286.722 99.6497 285.571 97.5687 284.601 96.518C284.143 96.0218 283.579 95.9425 283.156 95.3396L283.33 94.912C283.49 94.8499 283.654 94.7965 283.823 94.7656C286.953 94.1948 287.187 99.1778 289.048 100.466C289.206 100.576 289.407 100.492 289.592 100.461C290.928 98.8752 289.745 96.2386 290.435 94.5012C290.486 94.3731 290.537 94.2471 290.6 94.1242Z"/>
	<path fill="#6472AE" d="M161.255 94.8742C161.868 94.7444 162.515 94.7782 163.139 94.7896C164.841 94.8206 168.291 94.6639 169.542 95.9879Q169.651 96.104 169.751 96.2282C171.525 98.4314 168.977 98.8941 169.059 100.552C169.125 101.9 170.932 102.602 170.863 104.273C170.824 105.207 170.356 106.015 169.676 106.626L169.547 106.888C167.565 108.271 162.88 107.707 160.469 107.666C162.432 105.082 159.915 97.5576 161.255 94.8742ZM162.711 101.873C162.945 103.123 163.008 105.097 162.263 106.17Q162.224 106.226 162.184 106.281C163.552 106.276 167.115 106.557 168.09 105.673C168.673 105.281 168.975 104.915 169.33 104.312C169.37 103.688 169.34 103.492 168.924 103.01C168.134 102.094 166.161 101.884 165.02 101.816C164.265 101.77 163.451 101.677 162.711 101.873ZM162.695 96.3737C162.807 97.5813 163.059 99.2496 162.312 100.287C163.52 100.274 166.667 100.534 167.542 99.7972C168.135 99.2492 168.452 98.8855 168.633 98.0857C168.463 97.4898 168.373 97.1995 167.797 96.8845C166.54 96.1978 164.078 96.0726 162.695 96.3737Z"/>
	<path fill="#6472AE" d="M176.767 94.6246C178.505 94.4062 180.113 94.5493 181.602 95.5633C183.065 96.5585 183.986 98.1665 184.297 99.8906C184.643 101.809 184.369 103.902 183.22 105.513C182.205 106.936 180.978 107.471 179.299 107.751C178.169 108.035 176.759 107.86 175.686 107.442C174.342 106.918 173.34 105.879 172.777 104.558C171.976 102.675 171.946 100.162 172.723 98.2667C173.559 96.2254 174.823 95.4229 176.767 94.6246ZM177.602 96.1246C176.458 96.4035 175.623 96.9682 174.56 97.3719C174.712 98.6462 173.743 100.079 173.761 101.46C173.779 102.85 174.736 104.143 174.768 105.48C175.769 105.864 176.974 106.491 178.057 106.46C179.452 106.291 180.572 106.071 181.479 104.911C182.482 103.629 182.79 101.933 182.576 100.344C182.392 98.9795 181.737 97.6199 180.612 96.7889C179.683 96.1029 178.715 96.0404 177.602 96.1246Z"/>
	<path fill="#6472AE" d="M226.152 94.6246Q226.505 94.544 226.865 94.5032C228.642 94.298 230.378 94.5611 231.803 95.708C233.217 96.8447 233.954 98.5874 234.14 100.36C234.338 102.24 233.982 104.34 232.746 105.828C231.8 106.967 230.765 107.456 229.307 107.583C229.001 107.73 228.578 107.726 228.242 107.746C226.601 107.846 224.96 107.342 223.729 106.232C220.986 103.757 222.688 100.056 222.495 97.0228L222.491 96.9681C223.713 96.2065 224.944 95.409 226.152 94.6246ZM226.576 96.1247C225.135 96.9278 224.353 97.6851 223.888 99.3126C223.424 100.942 223.45 102.901 224.311 104.403C224.794 105.245 225.556 105.869 226.5 106.119C227.274 106.323 228.021 106.372 228.801 106.192C230.022 105.988 230.88 105.588 231.612 104.553C232.49 103.313 232.71 101.69 232.443 100.217C232.187 98.8074 231.47 97.4497 230.258 96.6372C229.063 95.836 227.943 95.9602 226.576 96.1247Z"/>
	<path fill="#84BD25" d="M48.4337 23.5658C52.8264 23.4367 56.1913 25.1761 59.3786 28.1036C64.0573 32.401 66.6639 37.9275 66.9346 44.2746C67.204 50.5931 65.1955 56.9325 60.8778 61.6137C58.1517 64.5693 55.3429 65.9143 51.3151 66.0834L51.1648 65.6639C52.6736 64.6072 54.5417 63.9519 55.9718 62.8126C60.5132 59.195 63.7043 53.7994 64.3889 48.0221C65.3677 39.7615 60.9101 30.6292 53.2957 26.91C51.8545 26.206 47.3233 25.1708 46.5631 24.2062C47.0679 23.6808 47.7302 23.6983 48.4337 23.5658Z"/>
	<path fill="#6472AE" d="M259.51 94.4699C262.533 94.6511 267.141 93.7414 269.799 95.2881L269.734 95.6101C267.283 96.5357 263.972 96.1383 261.384 96.0735C262.067 97.293 261.723 98.9132 261.531 100.227L262.081 100.628C261.904 101.025 261.666 101.362 261.415 101.715C261.766 102.918 262.059 104.86 261.417 106.018C261.379 106.087 261.37 106.098 261.33 106.156C264.111 106.055 267.173 105.736 269.906 106.346L270.131 106.578L270.208 106.557C271.045 106.321 271.556 106.001 271.99 105.23C273.382 102.754 272.571 95.8004 273.87 94.6895C275.583 94.4727 278.663 93.757 280.15 94.9408C280.743 95.4133 280.927 96.176 280.999 96.8957C281.258 99.5076 280.759 102.26 280.94 104.917C281.011 105.955 281.722 106.003 282.158 106.749C282.556 107.429 282.162 109.927 281.916 110.669L281.537 111.084C281.104 110.876 280.797 110.615 280.649 110.133C280.407 109.343 280.741 108.336 280.153 107.68C278.144 107.728 273.878 107.155 272.21 108.188C271.673 109.207 272.895 109.973 271.525 110.886C271.423 110.868 271.094 110.837 271.044 110.764C270.22 109.577 271.138 107.994 269.906 107.208C268.752 108.305 261.651 107.745 259.829 107.737C259.92 107.561 260 107.38 260.038 107.184C260.385 105.397 260.417 95.7725 259.51 94.4699ZM274.673 96.3747C274.785 98.8672 275.026 103.707 273.243 105.667Q273.028 105.902 272.793 106.119C274.486 106.088 276.395 105.881 278.062 106.128C278.575 106.08 279.02 106.148 279.388 105.77C279.289 104.4 279.54 96.7227 279.129 96.2129C277.71 96.2272 276.055 96.0906 274.673 96.3747Z"/>
	<path fill="#6472AE" d="M41.29 22.091C41.9271 21.9622 42.4205 21.954 42.9885 22.247C42.8194 22.959 40.4214 23.8099 39.6486 24.1593C34.576 26.4528 30.605 28.1499 26.9133 32.5283C23.2945 36.8202 22.0385 42.6588 22.5223 48.1717C23.1387 55.195 28.178 62.2667 34.707 65.0171C37.1164 66.0321 39.6016 66.2844 42.1309 66.8254C42.8686 66.9832 43.552 67.3087 44.2882 67.4709C45.4284 67.7221 47.562 67.7988 48.4084 68.5074L48.1675 68.8784C41.1479 69.6432 34.4903 68.6332 28.8094 64.2093Q28.3636 63.8583 27.9357 63.4856Q27.5078 63.113 27.0988 62.7196Q26.6899 62.3263 26.3009 61.9132Q25.912 61.5 25.5439 61.0682Q25.1759 60.6363 24.8296 60.1868Q24.4834 59.7372 24.1598 59.2711Q23.8363 58.805 23.5362 58.3234Q23.2361 57.8419 22.9602 57.346Q22.6843 56.8502 22.4333 56.3413Q22.1822 55.8325 21.9567 55.3118Q21.7311 54.7911 21.5317 54.26Q21.3322 53.7288 21.1592 53.1884Q20.9862 52.6479 20.8402 52.0996Q20.6942 51.5513 20.5755 50.9965Q20.4568 50.4416 20.3657 49.8815Q20.2746 49.3215 20.2113 48.7576C19.4561 42.5479 20.7653 36.2553 24.6662 31.2767C28.8504 25.9364 34.5803 22.8988 41.29 22.091Z"/>
	<path fill="#6472AE" d="M224.402 55.6241C224.952 55.5564 225.232 55.4364 225.721 55.733C225.717 58.9375 226.523 79.2097 225.666 80.5338C223.131 80.658 220.52 80.5322 217.977 80.5331L217.749 80.4532C216.378 78.9054 217.617 65.6105 217.289 62.4945C218.901 61.3723 223.608 57.2379 224.402 55.6241Z"/>
	<path fill="#84BD25" d="M92.2556 16.8977C94.4345 17.5739 98.1715 17.1148 100.462 16.8971C100.956 21.8805 100.873 30.5984 100.492 35.6644C99.4408 37.4525 97.8097 38.8445 96.3289 40.2718C95.0973 41.8556 93.6314 43.2624 92.1349 44.591C91.9839 39.2687 92.1474 33.9038 92.1239 28.5754C92.1089 25.1979 91.5738 19.9817 92.2556 16.8977Z"/>
	<path fill="#84BD25" d="M41.6776 11.8C45.6092 11.3408 49.9685 12.4046 53.5943 13.8607Q54.3137 14.155 55.018 14.484Q55.7223 14.8129 56.4097 15.1758Q57.0971 15.5386 57.7661 15.9344Q58.4351 16.3303 59.084 16.7582Q59.7329 17.1861 60.3602 17.6451Q60.9876 18.104 61.5918 18.593Q62.1961 19.0819 62.7759 19.5997Q63.3556 20.1174 63.9095 20.6628Q64.4634 21.2081 64.9902 21.7797Q65.5169 22.3514 66.0152 22.948Q66.5134 23.5446 66.9821 24.1647Q67.4508 24.7848 67.8887 25.427Q68.3267 26.0692 68.7329 26.7319Q69.1391 27.3946 69.5126 28.0763Q69.8861 28.758 70.226 29.4571Q70.5658 30.1561 70.8713 30.8709C74.0939 38.4668 73.9446 47.5465 70.8717 55.143C68.4074 61.2348 65.0928 62.6449 59.3851 65.0696Q60.8154 63.713 62.211 62.3206Q62.888 61.5696 63.5367 60.7939Q63.9711 60.2719 64.3789 59.729Q64.7868 59.1861 65.1672 58.6236Q65.5476 58.0611 65.8996 57.4804Q66.2516 56.8997 66.5742 56.3022Q66.8969 55.7048 67.1895 55.092Q67.4821 54.4792 67.7439 53.8526Q68.0056 53.2261 68.236 52.5873Q68.4663 51.9485 68.6646 51.299Q68.8628 50.6496 69.0286 49.991Q69.1944 49.3325 69.3272 48.6666Q69.46 48.0007 69.5596 47.329Q69.6591 46.6572 69.7252 45.9814Q69.7913 45.3056 69.8237 44.6273Q69.856 43.949 69.8547 43.27Q69.8533 42.5909 69.8183 41.9128Q69.7832 41.2347 69.7144 40.5591C68.9733 32.6354 65.8039 26.3549 59.6315 21.2629C54.809 17.2845 48.034 14.6448 41.7192 14.8397C39.7169 14.9015 37.7078 15.487 35.708 15.6699C35.2681 15.7102 34.9652 15.8362 34.6157 15.547C35.5121 13.9772 39.9639 12.4388 41.6776 11.8Z"/>
	<path fill="#6472AE" d="M30.6765 14.061C30.869 14.171 30.8794 14.2857 30.9662 14.4853C27.3587 18.1786 23.1149 21.8664 20.0017 25.991C15.5917 31.8336 13.4911 39.71 14.5196 46.9672C15.5345 54.1279 19.3797 61.012 25.1967 65.3655C36.8243 74.0678 47.4786 70.2145 60.372 68.357C59.1155 69.262 57.8498 70.0176 56.4758 70.7307C55.0644 71.5128 53.4612 72.1404 51.9274 72.6364C44.2532 75.118 35.173 74.5546 27.9789 70.8555C20.8554 67.1928 14.9614 60.4981 12.5293 52.8486Q12.2843 52.0925 12.0771 51.3252Q11.8699 50.5579 11.701 49.7813Q11.5321 49.0047 11.402 48.2207Q11.2718 47.4366 11.1806 46.6471Q11.0895 45.8576 11.0376 45.0645Q10.9857 44.2714 10.9733 43.4768Q10.9608 42.6821 10.9877 41.8878Q11.0146 41.0935 11.0809 40.3015Q11.1472 39.5094 11.2527 38.7217Q11.3581 37.934 11.5025 37.1524Q11.6469 36.3709 11.8299 35.5975Q12.0129 34.824 12.234 34.0606Q12.4551 33.2972 12.7138 32.5458Q12.9725 31.7943 13.2681 31.0565Q13.5638 30.3188 13.8956 29.5966Q14.2274 28.8744 14.5947 28.1696C17.8647 21.8926 23.8316 16.2151 30.6765 14.061Z"/>
	<path fill="#6472AE" d="M231.378 49.1243C231.654 49.1209 232.119 49.0731 232.339 49.229C234.651 50.8636 240.112 57.3559 242.329 59.7233L252.779 70.9092C255.395 73.6629 258.138 76.3417 260.583 79.2494C260.958 79.6958 261.206 80.0257 261.311 80.6136C259.522 80.5366 257.727 80.5319 255.937 80.5005C254.314 80.5076 252.696 80.4229 251.074 80.3422C250.896 79.7736 228.47 55.7476 226.136 53.8189C227.63 53.1046 230.395 50.5076 231.378 49.1243Z"/>
	<path fill="#6472AE" d="M203.073 33.3739C203.466 33.3927 203.549 33.4057 203.851 33.6579C204.509 37.3348 203.95 45.0633 203.952 49.1673C203.959 59.1068 204.384 69.2141 203.985 79.1329C203.963 79.69 203.868 80.1203 203.587 80.6066C201.078 80.2424 198.204 80.4737 195.679 80.6224C195.49 80.5457 195.394 80.2908 195.288 80.1169C194.923 74.7745 195.237 69.2235 195.236 63.8618C195.236 57.7743 194.941 51.5156 195.323 45.4476C195.386 44.436 195.502 43.3424 195.896 42.4018C197.359 38.9088 201.439 36.7596 203.05 33.4243L203.073 33.3739Z"/>
	<path fill="#84BD25" d="M41.3717 1.86051C45.9855 1.57609 51.2263 2.79185 55.4903 4.43731C64.9739 8.09702 73.2361 14.99 77.3906 24.4155C79.974 30.2766 82.7411 42.991 80.29 49.1844C79.4017 51.4287 75.181 56.3864 72.8913 57.3297C72.687 57.4139 72.5512 57.2995 72.3578 57.2153C72.3345 56.9411 74.7554 51.0433 75.046 49.8543C76.0389 45.792 76.2176 41.9351 75.8932 37.778C74.999 32.2571 73.5507 27.0756 70.4049 22.3779C65.1338 14.5065 57.1223 9.33451 47.8524 7.50391C40.5117 6.05431 31.6556 7.43224 25.0945 11.0467C22.9789 12.2122 21.1058 13.8063 19.0987 15.1509C19.9806 12.5141 22.1964 9.56661 24.0121 7.48605C28.0955 2.80725 35.5657 2.26094 41.3717 1.86051Z"/>
	<path fill="#6472AE" d="M42.8361 80.7677C31.0456 80.4372 20.3991 76.5921 12.1838 67.9063C5.42748 60.7633 1.99802 50.2889 2.27888 40.5419C2.55882 30.8271 6.57974 20.0907 13.759 13.2983Q14.3127 12.7822 14.9438 12.3641L15.4056 12.3938C14.9703 13.8156 14.3483 15.185 13.9475 16.6091C13.3166 18.8507 12.9789 21.1091 12.2023 23.3282C11.1919 26.2154 9.75281 28.9402 8.84055 31.8626Q8.60056 32.6528 8.39905 33.4536Q8.19754 34.2545 8.03499 35.0641Q7.87243 35.8738 7.74922 36.6904Q7.626 37.5069 7.54241 38.3285Q7.45881 39.1501 7.41504 39.9747Q7.37126 40.7994 7.36741 41.6252Q7.36356 42.451 7.39964 43.276Q7.43572 44.101 7.51164 44.9234Q7.58756 45.7457 7.70316 46.5634Q7.81875 47.3811 7.97374 48.1922Q8.12873 49.0033 8.32276 49.806Q8.51679 50.6087 8.7494 51.4011Q8.98201 52.1935 9.25266 52.9737Q9.52331 53.7539 9.83136 54.5201Q10.1394 55.2863 10.4841 56.0367Q10.8289 56.7871 11.2095 57.52C15.5437 65.6773 22.618 71.8095 31.492 74.5146Q32.298 74.7628 33.1151 74.9714Q33.9322 75.1799 34.7585 75.3483Q35.5849 75.5167 36.4184 75.6445Q37.252 75.7724 38.0908 75.8593Q38.9297 75.9463 39.7717 75.9922Q40.6138 76.0381 41.4571 76.0428Q42.3004 76.0475 43.1429 76.011Q43.9854 75.9745 44.8252 75.8969Q45.6649 75.8193 46.4999 75.7008Q47.3348 75.5823 48.163 75.4231Q48.9911 75.264 49.8105 75.0645Q50.6299 74.8651 51.4386 74.6259Q52.2473 74.3867 53.0433 74.1083Q53.8394 73.8299 54.6208 73.5129Q55.4023 73.196 56.1674 72.8412Q56.9325 72.4865 57.6793 72.0948C60.0144 70.845 73.0964 61.9201 74.1375 62.0122L74.222 62.3617C74.2027 62.3759 74.1829 62.3896 74.164 62.4042C72.682 63.5553 70.7884 66.9128 69.3728 68.5378C62.9417 75.9198 53.9677 80.1693 44.2394 80.7454L42.8361 80.7677Z"/>
	<path fill="#84BD25" d="M264.345 2.62475C267.305 1.98853 271.022 2.53799 274.078 2.52076C274.01 2.96389 273.858 3.26839 273.564 3.59701C268.553 9.19538 262.628 14.1479 257.193 19.3396L219.823 54.4725C219.118 55.1242 218.323 55.9735 217.318 55.934C216.614 54.3529 218.11 45.7532 216.822 43.6803C216.811 43.6633 216.8 43.6467 216.789 43.6299C218.449 41.0658 216.08 22.4763 217.755 17.5613C217.892 17.448 218.086 17.235 218.254 17.1894C219.498 16.8499 224.124 16.6832 225.209 17.3039C225.625 17.7568 225.81 18.2293 225.93 18.8259C226.536 21.8278 225.802 25.4632 225.771 28.5611C225.741 31.4234 226.1 34.4486 225.78 37.29C225.701 37.9928 225.435 38.5227 225.052 39.1085C228.24 37.252 230.648 33.0872 233.294 30.4584C236.409 27.3629 239.895 24.6084 243.11 21.6126C245.149 19.7129 246.927 17.5136 249.027 15.6868C250.75 14.1878 252.714 12.9891 254.426 11.4659C257.645 8.60163 260.665 4.88237 264.345 2.62475Z"/>
	<path fill="#6472AE" d="M293.314 15.6248C294.283 15.5214 295.2 15.471 296.174 15.5303C296.76 15.8864 296.874 16.1888 297.033 16.8574C297.36 18.2294 297.772 22.5646 297.05 23.7257C295.369 23.745 293.678 23.7522 292.001 23.8682C285.92 24.2886 280.154 26.3605 276.09 31.0564C271.031 36.9028 268.952 44.7028 269.524 52.3421C269.966 58.2621 272.544 64.3304 277.109 68.2336C282.35 72.715 289.838 74.8199 296.659 74.2955C296.988 74.6931 297.135 75.0588 297.212 75.5615C297.471 77.2635 297.716 81.0664 296.717 82.4354C295.261 82.1982 293.799 82.0343 292.333 81.8728C290.906 81.4148 288.953 81.3787 287.448 81.0972C282.159 80.1082 277.351 78.3464 272.976 75.1698C266.047 70.138 262.232 62.3648 260.934 54.0525C259.631 45.7064 261.354 36.2063 266.401 29.3133C273.256 19.95 282.382 17.3145 293.314 15.6248Z"/>
	<path fill="#6472AE" d="M130.531 17.1238C133.134 17.0725 136.331 16.7106 138.839 17.2945C138.908 17.4024 138.975 17.5198 139.011 17.6438C139.599 19.6731 139.022 26.3494 139.015 28.8766L139.007 62.2513C139.008 64.686 139.414 79.6609 138.906 80.5674Q134.477 80.4688 130.049 80.5858C130.057 80.5711 130.065 80.5567 130.073 80.5417C130.085 80.5169 130.096 80.4911 130.108 80.4664C130.219 80.2474 130.333 80.0349 130.389 79.7935C130.893 77.6273 130.496 72.9728 130.5 70.5796C130.51 64.7753 130.853 58.7444 130.465 52.9622C130.434 52.4977 130.311 52.1018 130.073 51.7027C127.793 52.1042 123.791 51.7015 121.366 51.6911Q110.885 51.6237 100.405 51.75C100.668 55.3603 100.526 59.0342 100.524 62.6557L100.53 80.7229Q96.3699 80.2893 92.2049 80.672Q92.1131 66.6442 92.2706 52.6173C93.9154 50.107 96.404 47.3749 98.5209 45.2237C99.1566 44.5777 99.8978 43.8668 100.807 43.6698C103.382 43.1117 106.813 43.5583 109.483 43.5631L130.134 43.5629C131.048 41.9658 130.455 25.8355 130.417 23.0729C130.393 21.26 130.074 18.8702 130.531 17.1238Z"/>
	<path fill="#84BD25" d="M213.235 2.62465C215.623 2.13322 219.917 2.44819 222.35 2.93032C222.339 3.22363 222.285 3.42573 222.105 3.65998C219.332 7.27122 216.155 10.6192 213.182 14.0668L196.459 33.33C189.106 41.6817 182.043 50.2547 174.831 58.7231C170.056 64.3292 165.108 69.7952 160.38 75.442C158.69 77.4598 156.163 80.682 153.346 80.9312C152.764 80.6578 152.681 80.5572 152.509 79.9265C151.861 77.5535 152.227 74.2434 152.227 71.7698C152.227 67.5304 152.702 44.5663 151.837 43.1759C151.826 43.1588 151.815 43.142 151.804 43.125C153.53 40.4823 150.91 20.8077 152.797 17.6231C154.383 16.5094 158.343 17.1451 160.349 16.9425C160.501 17.2525 160.644 17.5852 160.716 17.9241C161.274 20.5294 160.818 27.9396 160.818 30.9931L160.805 50.6154C160.798 54.3648 160.951 58.2138 160.642 61.9508C160.571 62.8058 160.36 63.4169 159.897 64.1385C163.392 62.1428 165.294 57.7911 167.858 54.7978L193.223 25.1385C197.471 20.0896 201.834 15.2686 206.215 10.3459C208.515 7.76225 210.642 4.92106 213.235 2.62465Z"/>
</svg>
